# xmcd
#
# Track frame offsets:
#  183
#  12218
#  31315
#  46068
#  70228
#  91563
#  108913
#  134760
#  153125
#  169500
#  201563
#  233883
#  247575
#  277255
#  299485
#
# Disc length: 4543 seconds
#
# Revision: 3
# Processed by: cddbd v1.5.1PL2 Copyright (c) Steve Scherf et al.
# Submitted via: Collectorz.com_Music_Collector 6.11
#
DISCID=c811bd0f
DTITLE=Various Artist - American Folk Blues Festival '81
DYEAR=1981
DGENRE=Blues
TTITLE0=Bowling Green John - Bowling Green Rag
TTITLE1=Bowling Green John - Bye Bye Baby
TTITLE2=Bowling Green John - Last Fair Deal
TTITLE3=Sunnyland Slim - One Room Country Shack
TTITLE4=Sunnyland Slim - Tin Pan Alley
TTITLE5=Sunnyland Slim - Dust My Broom
TTITLE6=Louisiana Red - Hubert Sumlin - Woodchopping Blues
TTITLE7=Louisiana Red - Hubert Sumlin - I Love
TTITLE8=Louisiana Red - Hubert Sumlin - Everything I Do Gonna Be Funky
TTITLE9=Carey Bell's Blues Harp Band - I Need You So Bad
TTITLE10=Carey Bell's Blues Harp Band - Man And The Blues
TTITLE11=Margie Evans - Sunnyland Slim - Carey Bell's Blues Harp Band - 29 Ways
TTITLE12=Margie Evans - Sunnyland Slim - Carey Bell's Blues Harp Band - Trouble T
TTITLE13=Margie Evans - Sunnyland Slim - Carey Bell's Blues Harp Band - Hound Dog
TTITLE14=Margie Evans - Sunnyland Slim - Carey Bell's Blues Harp Band - Next Time
EXTD=
EXTT0=
EXTT1=
EXTT2=
EXTT3=
EXTT4=
EXTT5=
EXTT6=
EXTT7=
EXTT8=
EXTT9=
EXTT10=
EXTT11=
EXTT12=
EXTT13=
EXTT14=
PLAYORDER=
